<svg width="359" height="100" viewBox="0 0 359 100" fill="none" xmlns="http://www.w3.org/2000/svg">
<path d="M63.6 77.6C63.6 78.24 63.36 78.8 62.88 79.28C62.4 79.76 61.84 80 61.2 80C60.5067 80 59.92 79.76 59.44 79.28C59.0133 78.8 58.8 78.24 58.8 77.6V23.2C58.8 22.56 59.04 22 59.52 21.52C60 21.04 60.56 20.8 61.2 20.8C61.8933 20.8 62.4533 21.04 62.88 21.52C63.36 22 63.6 22.56 63.6 23.2V77.6ZM94.4563 80.8C90.3496 80.8 86.7229 79.92 83.5763 78.16C80.4296 76.4 77.9763 73.9467 76.2163 70.8C74.4563 67.6533 73.5763 63.9733 73.5763 59.76C73.5763 55.2267 74.4563 51.36 76.2163 48.16C78.0296 44.96 80.3496 42.5067 83.1763 40.8C86.0563 39.04 89.0963 38.16 92.2963 38.16C94.6429 38.16 96.9096 38.5867 99.0963 39.44C101.336 40.24 103.31 41.4667 105.016 43.12C106.776 44.72 108.163 46.6933 109.176 49.04C110.243 51.3867 110.83 54.1067 110.936 57.2C110.883 57.84 110.616 58.4 110.136 58.88C109.656 59.3067 109.096 59.52 108.456 59.52H76.3763L75.4163 55.2H106.936L105.896 56.16V54.56C105.683 52.0533 104.883 49.92 103.496 48.16C102.11 46.4 100.43 45.0667 98.4563 44.16C96.4829 43.2533 94.4296 42.8 92.2963 42.8C90.6963 42.8 89.0429 43.12 87.3363 43.76C85.6829 44.4 84.1629 45.4133 82.7763 46.8C81.4429 48.1333 80.3496 49.8667 79.4963 52C78.6429 54.08 78.2163 56.56 78.2163 59.44C78.2163 62.5867 78.8563 65.44 80.1363 68C81.4163 70.56 83.2563 72.5867 85.6563 74.08C88.1096 75.5733 91.0163 76.32 94.3763 76.32C96.2429 76.32 97.9229 76.0533 99.4163 75.52C100.91 74.9867 102.216 74.2933 103.336 73.44C104.456 72.5333 105.39 71.6 106.136 70.64C106.723 70.16 107.31 69.92 107.896 69.92C108.43 69.92 108.883 70.1333 109.256 70.56C109.683 70.9867 109.896 71.4667 109.896 72C109.896 72.64 109.63 73.2 109.096 73.68C107.496 75.6 105.416 77.28 102.856 78.72C100.296 80.1067 97.4963 80.8 94.4563 80.8ZM155.043 39.12C155.736 39.12 156.296 39.36 156.723 39.84C157.203 40.32 157.443 40.9067 157.443 41.6V77.6C157.443 78.24 157.203 78.8 156.723 79.28C156.243 79.76 155.683 80 155.043 80C154.35 80 153.763 79.76 153.283 79.28C152.856 78.8 152.643 78.24 152.643 77.6V68.08L154.003 67.44C154.003 68.9333 153.576 70.4533 152.723 72C151.923 73.5467 150.803 74.9867 149.363 76.32C147.923 77.6533 146.216 78.7467 144.243 79.6C142.323 80.4 140.243 80.8 138.003 80.8C134.376 80.8 131.123 79.8667 128.243 78C125.416 76.1333 123.176 73.5733 121.523 70.32C119.923 67.0667 119.123 63.4133 119.123 59.36C119.123 55.2 119.95 51.5467 121.603 48.4C123.256 45.2 125.496 42.6933 128.323 40.88C131.15 39.0667 134.35 38.16 137.923 38.16C140.216 38.16 142.35 38.56 144.323 39.36C146.35 40.16 148.11 41.2533 149.603 42.64C151.096 44.0267 152.243 45.6267 153.043 47.44C153.896 49.2 154.323 51.04 154.323 52.96L152.643 51.76V41.6C152.643 40.9067 152.856 40.32 153.283 39.84C153.763 39.36 154.35 39.12 155.043 39.12ZM138.403 76.32C141.23 76.32 143.736 75.6 145.923 74.16C148.11 72.6667 149.816 70.64 151.043 68.08C152.323 65.4667 152.963 62.56 152.963 59.36C152.963 56.2133 152.323 53.3867 151.043 50.88C149.816 48.3733 148.11 46.3733 145.923 44.88C143.736 43.3867 141.23 42.64 138.403 42.64C135.63 42.64 133.123 43.36 130.883 44.8C128.696 46.24 126.963 48.2133 125.683 50.72C124.456 53.2267 123.843 56.1067 123.843 59.36C123.843 62.56 124.456 65.4667 125.683 68.08C126.963 70.64 128.696 72.6667 130.883 74.16C133.07 75.6 135.576 76.32 138.403 76.32ZM189.319 38.16C192.839 38.16 195.639 38.88 197.719 40.32C199.852 41.7067 201.372 43.6267 202.279 46.08C203.239 48.48 203.719 51.1467 203.719 54.08V77.6C203.719 78.24 203.479 78.8 202.999 79.28C202.519 79.76 201.959 80 201.319 80C200.572 80 199.985 79.76 199.559 79.28C199.132 78.8 198.919 78.24 198.919 77.6V54.32C198.919 52.1867 198.572 50.24 197.879 48.48C197.185 46.72 196.039 45.3067 194.439 44.24C192.892 43.1733 190.839 42.64 188.279 42.64C185.985 42.64 183.799 43.1733 181.719 44.24C179.692 45.3067 178.039 46.72 176.759 48.48C175.479 50.24 174.839 52.1867 174.839 54.32V77.6C174.839 78.24 174.599 78.8 174.119 79.28C173.639 79.76 173.079 80 172.439 80C171.692 80 171.105 79.76 170.679 79.28C170.252 78.8 170.039 78.24 170.039 77.6V41.76C170.039 41.12 170.252 40.56 170.679 40.08C171.159 39.6 171.745 39.36 172.439 39.36C173.132 39.36 173.692 39.6 174.119 40.08C174.599 40.56 174.839 41.12 174.839 41.76V48.48L172.999 51.36C173.105 49.6533 173.639 48.0267 174.599 46.48C175.612 44.88 176.892 43.4667 178.439 42.24C179.985 40.96 181.692 39.9733 183.559 39.28C185.479 38.5333 187.399 38.16 189.319 38.16ZM267.489 52C267.489 56.0533 266.822 59.84 265.489 63.36C264.155 66.8267 262.262 69.8667 259.809 72.48C257.409 75.0933 254.555 77.1467 251.249 78.64C247.942 80.08 244.315 80.8 240.369 80.8C236.475 80.8 232.875 80.08 229.569 78.64C226.262 77.1467 223.382 75.0933 220.929 72.48C218.529 69.8667 216.662 66.8267 215.329 63.36C214.049 59.84 213.409 56.0533 213.409 52C213.409 47.9467 214.049 44.1867 215.329 40.72C216.662 37.2 218.529 34.1333 220.929 31.52C223.382 28.9067 226.262 26.88 229.569 25.44C232.875 23.9467 236.475 23.2 240.369 23.2C244.315 23.2 247.942 23.9467 251.249 25.44C254.555 26.88 257.409 28.9067 259.809 31.52C262.262 34.1333 264.155 37.2 265.489 40.72C266.822 44.1867 267.489 47.9467 267.489 52ZM258.849 52C258.849 48.0533 258.049 44.5067 256.449 41.36C254.902 38.2133 252.742 35.7333 249.969 33.92C247.195 32.1067 243.995 31.2 240.369 31.2C236.795 31.2 233.622 32.1067 230.849 33.92C228.075 35.7333 225.915 38.2133 224.369 41.36C222.822 44.4533 222.049 48 222.049 52C222.049 55.9467 222.822 59.4933 224.369 62.64C225.915 65.7867 228.075 68.2667 230.849 70.08C233.622 71.8933 236.795 72.8 240.369 72.8C243.995 72.8 247.195 71.8933 249.969 70.08C252.742 68.2667 254.902 65.7867 256.449 62.64C258.049 59.4933 258.849 55.9467 258.849 52ZM297.628 37.2C301.361 37.2 304.668 38.1333 307.548 40C310.481 41.8667 312.801 44.4267 314.508 47.68C316.215 50.88 317.068 54.6133 317.068 58.88C317.068 63.1467 316.215 66.9333 314.508 70.24C312.801 73.4933 310.508 76.0533 307.628 77.92C304.748 79.7867 301.495 80.72 297.868 80.72C295.841 80.72 293.921 80.4 292.108 79.76C290.295 79.12 288.695 78.2933 287.308 77.28C285.921 76.2133 284.775 75.0933 283.868 73.92C283.015 72.7467 282.481 71.6533 282.268 70.64L284.428 69.6V91.92C284.428 93.0933 284.028 94.0533 283.228 94.8C282.481 95.6 281.548 96 280.428 96C279.255 96 278.295 95.6 277.548 94.8C276.801 94.0533 276.428 93.0933 276.428 91.92V41.84C276.428 40.72 276.801 39.76 277.548 38.96C278.295 38.16 279.255 37.76 280.428 37.76C281.548 37.76 282.481 38.16 283.228 38.96C284.028 39.76 284.428 40.72 284.428 41.84V47.36L283.148 46.64C283.308 45.6267 283.815 44.5867 284.668 43.52C285.521 42.4 286.588 41.36 287.868 40.4C289.201 39.44 290.695 38.6667 292.348 38.08C294.055 37.4933 295.815 37.2 297.628 37.2ZM296.748 44.56C294.188 44.56 291.948 45.2 290.028 46.48C288.161 47.7067 286.695 49.3867 285.628 51.52C284.561 53.6533 284.028 56.1067 284.028 58.88C284.028 61.6 284.561 64.08 285.628 66.32C286.695 68.5067 288.161 70.24 290.028 71.52C291.948 72.7467 294.188 73.36 296.748 73.36C299.255 73.36 301.441 72.7467 303.308 71.52C305.175 70.24 306.641 68.5067 307.708 66.32C308.828 64.08 309.388 61.6 309.388 58.88C309.388 56.16 308.828 53.7333 307.708 51.6C306.641 49.4133 305.175 47.7067 303.308 46.48C301.441 45.2 299.255 44.56 296.748 44.56ZM323.636 73.44C323.156 72.6933 322.942 71.84 322.996 70.88C323.049 69.8667 323.609 69.0133 324.676 68.32C325.422 67.84 326.196 67.6533 326.996 67.76C327.849 67.8133 328.649 68.2133 329.396 68.96C330.889 70.6133 332.542 71.92 334.356 72.88C336.222 73.84 338.462 74.32 341.076 74.32C342.142 74.2667 343.236 74.1067 344.356 73.84C345.476 73.52 346.436 72.9867 347.236 72.24C348.036 71.44 348.436 70.2933 348.436 68.8C348.436 67.4667 348.009 66.4 347.156 65.6C346.302 64.8 345.182 64.16 343.796 63.68C342.409 63.1467 340.916 62.6667 339.316 62.24C337.609 61.76 335.876 61.2267 334.116 60.64C332.409 60.0533 330.862 59.3067 329.476 58.4C328.089 57.44 326.942 56.2133 326.036 54.72C325.182 53.2267 324.756 51.3867 324.756 49.2C324.756 46.6933 325.449 44.5333 326.836 42.72C328.276 40.9067 330.116 39.4933 332.356 38.48C334.649 37.4667 337.129 36.96 339.796 36.96C341.342 36.96 342.969 37.1733 344.676 37.6C346.382 37.9733 348.036 38.5867 349.636 39.44C351.236 40.2933 352.622 41.4133 353.796 42.8C354.329 43.4933 354.622 44.32 354.676 45.28C354.782 46.24 354.356 47.0933 353.396 47.84C352.756 48.3733 351.982 48.6133 351.076 48.56C350.169 48.5067 349.422 48.2133 348.836 47.68C347.822 46.4 346.516 45.4133 344.916 44.72C343.316 43.9733 341.502 43.6 339.476 43.6C338.462 43.6 337.396 43.76 336.276 44.08C335.209 44.3467 334.302 44.8533 333.556 45.6C332.809 46.3467 332.436 47.44 332.436 48.88C332.436 50.2133 332.862 51.28 333.716 52.08C334.622 52.88 335.796 53.5467 337.236 54.08C338.676 54.6133 340.249 55.0933 341.956 55.52C343.609 55.9467 345.236 56.4533 346.836 57.04C348.489 57.6267 349.956 58.4 351.236 59.36C352.569 60.2667 353.636 61.4667 354.436 62.96C355.289 64.4 355.716 66.24 355.716 68.48C355.716 71.0933 354.942 73.3333 353.396 75.2C351.902 77.0133 349.982 78.4 347.636 79.36C345.342 80.32 342.916 80.8 340.356 80.8C337.316 80.8 334.276 80.2667 331.236 79.2C328.249 78.08 325.716 76.16 323.636 73.44Z" fill="black"/>
<path d="M14.7934 55.2233V45.5733C14.762 43.7674 15.1008 41.9743 15.7887 40.3044C16.4766 38.6344 17.4992 37.123 18.7934 35.8633C20.0515 34.5408 21.5702 33.4936 23.2536 32.7879C24.9369 32.0822 26.7483 31.7333 28.5734 31.7633H28.7834C31.7198 31.7551 34.577 32.7145 36.9134 34.4933C37.6883 35.0715 38.5733 35.4851 39.514 35.7086C40.4547 35.9322 41.4312 35.961 42.3834 35.7933C43.3472 35.6521 44.273 35.3192 45.106 34.8142C45.939 34.3093 46.6624 33.6425 47.2334 32.8533C47.8111 32.078 48.2244 31.193 48.4479 30.2524C48.6715 29.3118 48.7005 28.3355 48.5334 27.3833C48.4172 26.4201 48.1021 25.4916 47.608 24.6567C47.114 23.8218 46.4518 23.0987 45.6634 22.5333C40.786 18.9067 34.8611 16.9657 28.7834 17.0033H28.5734C24.8156 16.9453 21.0862 17.6621 17.6177 19.1091C14.1492 20.556 11.016 22.702 8.4134 25.4133C5.70932 28.0213 3.56809 31.1555 2.12168 34.6228C0.675282 38.09 -0.0456269 41.8167 0.00339906 45.5733V54.7333C-0.054753 58.4195 0.633794 62.0794 2.02757 65.4926C3.42135 68.9057 5.49152 72.0014 8.1134 74.5933C7.68436 67.5064 10.0871 60.5392 14.7934 55.2233Z" fill="black"/>
<path d="M23.1234 82.8233C22.9734 82.4333 22.8234 82.0433 22.6934 81.6533C21.1453 77.0045 21.2123 71.9692 22.8834 67.3633C21.3611 66.6697 19.9784 65.7039 18.8034 64.5133C16.295 62.0667 14.8569 58.7268 14.8034 55.2233C10.0935 60.5376 7.68709 67.505 8.1134 74.5933L8.4134 74.9033C12.3674 79.0172 17.5122 81.7873 23.1234 82.8233Z" fill="#29ABE2"/>
<path d="M34.3734 67.3533C32.6177 68.1495 30.7112 68.5588 28.7834 68.5533H28.5734C26.6134 68.5691 24.6728 68.1633 22.8834 67.3633C21.2123 71.9692 21.1453 77.0045 22.6934 81.6533C22.8234 82.0533 22.9734 82.4433 23.1234 82.8233C24.9218 83.1475 26.746 83.3082 28.5734 83.3033H28.7834C32.127 83.3142 35.4457 82.7284 38.5834 81.5733C35.5673 77.4646 34.0817 72.4312 34.3834 67.3433L34.3734 67.3533Z" fill="#0071BC"/>
<path d="M48.5434 72.9232C48.7105 71.971 48.6815 70.9947 48.4579 70.0541C48.2344 69.1135 47.8211 68.2285 47.2434 67.4532C46.6715 66.6692 45.95 66.0061 45.1205 65.5023C44.291 64.9985 43.37 64.664 42.4105 64.518C41.4511 64.372 40.4722 64.4175 39.5304 64.6519C38.5886 64.8862 37.7026 65.3047 36.9234 65.8832C36.1285 66.4577 35.2775 66.9502 34.3834 67.3532C34.0817 72.4412 35.5673 77.4746 38.5834 81.5833C41.1123 80.649 43.4987 79.3666 45.6734 77.7732C46.4679 77.2142 47.1347 76.4927 47.6294 75.6566C48.1242 74.8205 48.4357 73.8888 48.5434 72.9232Z" fill="#0B446F"/>
</svg>
